Plot: A young family moves into an historic home in Georgia, only to learn they are not the house's only inhabitants. Soon they find themselves in the presence of a secret rising from underground and threatening to bring down anyone in its path. 

MediaInfo 0.7.61:
General
Unique ID                                : 189087368087856675876050610394357347943 (0x8E40E705B0B91A398C635C94ABACB667)
Complete name                            : D:The.Haunting.in.Connecticut.2.Ghost.of.Georgia.2013.720p.L2.WEB-DL.mkv
Format                                   : Matroska
Format version                           : Version 1
File size                                : 3.05 GiB
Duration                                 : 1h 40mn
Overall bit rate                         : 4 323 Kbps
Movie name                               : -=GOLIAF=-
Encoded date                             : UTC 2013-02-05 23:31:02
Writing application                      : mkvmerge v2.4.0 ('Fumbling Towards Ecstasy') built on Oct 11 2008 20:13:15
Writing library                          : libebml v0.7.7 + libmatroska v0.8.1

Video
ID                                       : 1
Format                                   : AVC
Format/Info                              : Advanced Video Codec
Format profile                           : Main@L3.1
Format settings, CABAC                   : No
Format settings, ReFrames                : 2 frames
Codec ID                                 : V_MPEG4/ISO/AVC
Duration                                 : 1h 40mn
Bit rate                                 : 3 469 Kbps
Width                                    : 1 280 pixels
Height                                   : 530 pixels
Display aspect ratio                     : 2.40:1
Frame rate mode                          : Constant
Frame rate                               : 23.976 fps
Color space                              : YUV
Chroma subsampling                       : 4:2:0
Bit depth                                : 8 bits
Scan type                                : Progressive
Bits/(Pixel*Frame)                       : 0.213
Stream size                              : 2.45 GiB (80%)
Language                                 : English
Default                                  : Yes
Forced                                   : No
Color primaries                          : BT.709
Transfer characteristics                 : BT.709
Matrix coefficients                      : BT.709

Audio #1
ID                                       : 2
Format                                   : AC-3
Format/Info                              : Audio Coding 3
Mode extension                           : CM (complete main)
Format settings, Endianness              : Big
Codec ID                                 : A_AC3
Duration                                 : 1h 40mn
Bit rate mode                            : Constant
Bit rate                                 : 384 Kbps
Channel(s)                               : 6 channels
Channel positions                        : Front: L C R, Side: L R, LFE
Sampling rate                            : 48.0 KHz
Bit depth                                : 16 bits
Compression mode                         : Lossy
Stream size                              : 277 MiB (9%)
Language                                 : Russian
Default                                  : Yes
Forced                                   : No

Audio #2
ID                                       : 3
Format                                   : AC-3
Format/Info                              : Audio Coding 3
Mode extension                           : CM (complete main)
Format settings, Endianness              : Big
Codec ID                                 : A_AC3
Duration                                 : 1h 40mn
Bit rate mode                            : Constant
Bit rate                                 : 384 Kbps
Channel(s)                               : 6 channels
Channel positions                        : Front: L C R, Side: L R, LFE
Sampling rate                            : 48.0 KHz
Bit depth                                : 16 bits
Compression mode                         : Lossy
Stream size                              : 277 MiB (9%)
Language                                 : English
Default                                  : No
Forced                                   : No

Text
ID                                       : 4
Format                                   : UTF-8
Codec ID                                 : S_TEXT/UTF8
Codec ID/Info                            : UTF-8 Plain Text
Language                                 : English
Default                                  : No
Forced                                   : No

Menu
00:00:00.000                             : en:Chapter 1
00:07:40.000                             : en:Chapter 2
00:16:13.000                             : en:Chapter 3
00:25:14.000                             : en:Chapter 4
00:32:28.000                             : en:Chapter 5
00:39:28.000                             : en:Chapter 6
00:47:48.000                             : en:Chapter 7
00:55:29.000                             : en:Chapter 8
01:03:24.000                             : en:Chapter 9
01:12:32.000                             : en:Chapter 10
01:19:04.000                             : en:Chapter 11
01:30:15.000                             : en:Chapter 12
01:34:49.000                             : en:Chapter 13

